<svg width="46" height="46" viewBox="0 0 46 46" version="1.1" xmlns="http://www.w3.org/2000/svg"><title>tab_discuss inactive</title><g stroke="none" stroke-width="1" fill="none" fill-rule="evenodd"><g stroke="#AFAFAF" stroke-width="2.6"><g><path d="M8.278 29.348l5.647-5.339h9.772a4.657 4.657 0 0 0 4.656-4.656V9.957A4.657 4.657 0 0 0 23.697 5.3H6.957A4.657 4.657 0 0 0 2.3 9.957v9.396a4.658 4.658 0 0 0 3.931 4.6l1.1.172v4.815a.561.561 0 0 0 .947.408z"/><path d="M37.637 41.244l-5.718-5.489H23.89c-2.39 0-4.357-2.082-4.357-4.686v-9.365c0-2.605 1.967-4.687 4.357-4.687h15.109c2.39 0 4.357 2.082 4.357 4.687v9.365c0 2.39-1.67 4.373-3.83 4.652l-1.133.147v4.928c0 .331-.226.57-.468.57a.416.416 0 0 1-.288-.122z" fill="#FFF"/></g></g></g></svg>