<svg width="46" height="46" viewBox="0 0 46 46" version="1.1" xmlns="http://www.w3.org/2000/svg"><title>tab_shop_inactive</title><g stroke="none" stroke-width="1" fill="none" fill-rule="evenodd"><g><path d="M35.651 8.163v1.33H10.35v-1.33a.863.863 0 0 0-.864-.863H5.163a.863.863 0 0 0-.863.863v29.674c0 .476.387.863.863.863h35.674a.863.863 0 0 0 .863-.863V8.163a.863.863 0 0 0-.863-.863h-4.322a.863.863 0 0 0-.864.863z" stroke="#AFAFAF" stroke-width="2.6"/><path d="M2 23h13.414M31 23h13" stroke="#AFAFAF" stroke-width="2.6" stroke-linecap="round" stroke-linejoin="round"/><path d="M17.163 15.3a.863.863 0 0 0-.863.863v14.674c0 .476.387.863.863.863h11.674a.863.863 0 0 0 .863-.863V16.163a.863.863 0 0 0-.863-.863H17.163z" stroke="#AFAFAF" stroke-width="2.6"/><g transform="translate(20 18)" fill="#AFAFAF"><ellipse cx="3" cy="3.676" rx="2.692" ry="2.746"/><path d="M4.346 5.324l.918 2.996A1.082 1.082 0 0 1 4.23 9.718H1.77A1.082 1.082 0 0 1 .736 8.32l.918-2.996a1.408 1.408 0 0 1 2.692 0z"/></g></g></g></svg>